<svg width="200" height="200.001" overflow="visible" style="display: block;" viewBox="0 0 200 200.001" fill="none" xmlns="http://www.w3.org/2000/svg">
<g id="Vector">
<path d="M91.1414 16.2128L184.369 109.441L109.439 184.372L16.2105 91.1437L91.1414 16.2128Z" fill="black"/>
<path d="M90.4496 90.4496C69.758 111.141 36.2103 111.141 15.5187 90.4496C-5.1729 69.758 -5.1729 36.2103 15.5187 15.5187C36.2103 -5.1729 69.758 -5.1729 90.4496 15.5187C111.141 36.2103 111.141 69.758 90.4496 90.4496Z" fill="black"/>
<path d="M184.481 184.482C163.79 205.174 130.242 205.174 109.55 184.482C88.8588 163.791 88.8588 130.243 109.55 109.551C130.242 88.8599 163.79 88.8599 184.481 109.551C205.173 130.243 205.173 163.791 184.481 184.482Z" fill="var(--fill-0, #0AC200)"/>
</g>
</svg>
