<svg width="100%" height="100%" overflow="visible" style="display: block;" viewBox="0 0 191.033 101.709" fill="none" xmlns="http://www.w3.org/2000/svg">
<path id="Union" d="M79.548 64.1758C82.8629 65.1779 79.141 68.7006 78.2902 70.4014C77.6679 71.6463 80.1419 73.2804 79.6154 74.2129C78.5697 74.6316 77.6058 72.877 77.2023 72.0879C75.6095 75.2851 72.9651 78.9104 70.9728 81.9111C66.9674 87.9441 62.781 94.1924 57.5744 99.2539C56.5565 100.243 55.6424 100.851 54.4103 101.547C53.1252 101.908 51.5086 101.742 51.1262 100.277C50.2065 96.7548 52.4589 91.8651 53.8937 88.7305C56.6531 82.7024 60.0641 76.8143 64.8811 72.2109C66.5815 70.5945 67.7101 69.4921 70.0051 68.6738C71.3658 68.1888 72.9099 68.0772 74.3312 68.4189C74.5882 68.4808 75.861 69.1009 76.1818 69.2529L76.2893 69.207C76.5864 68.7098 76.5469 68.0714 76.6926 67.623C77.0141 66.634 78.6902 64.685 79.548 64.1758ZM76.9582 29.7354C78.6705 29.1192 80.025 31.0938 79.7121 32.6572C79.0968 35.423 76.5922 37.0674 73.9875 37.6982C73.0121 37.9344 71.896 38.0179 71.0334 38.4902C70.4134 38.896 70.5487 40.505 70.7219 41.1084C71.5804 41.7003 72.2724 41.799 73.3811 41.5547C76.2335 40.9103 79.6086 39.5533 81.551 37.2891C81.9009 36.8545 82.5778 35.2205 82.7932 34.9053C83.1125 34.4182 85.3024 31.2793 85.8254 31.458C88.4937 32.3712 86.4275 34.0355 85.6555 35.2861C84.7479 36.756 83.4255 38.4848 83.4865 40.1689C83.9614 40.1478 84.6875 40.15 85.1027 39.9355C88.1854 38.3437 90.5107 35.1534 92.5197 32.4062C92.7263 32.1238 92.9999 31.9437 93.2883 31.7676C94.0228 32.2389 94.1964 32.3176 94.5852 33.1143C94.272 34.0154 93.6297 35.1188 93.1643 35.9863C91.4298 39.2197 89.7444 42.5591 87.7365 45.624C87.6257 45.7933 87.6627 45.9121 87.7004 46.0859C90.2223 45.8252 92.7546 45.6708 95.2893 45.6221C97.9782 45.5654 107.692 45.7217 110.784 46.502C110.969 46.5484 111.416 47.3123 111.453 47.7822C111.288 48.2354 111.058 48.2395 110.574 48.1875C104.057 47.487 97.4992 47.1958 90.9602 47.7656C89.3622 47.9048 87.7143 48.2599 86.1701 48.377C85.6566 49.4139 84.5904 51.1214 83.9523 52.1172C84.6551 52.1142 85.2344 52.3166 85.9084 52.4912C92.9797 54.3237 98.1976 60.1259 98.2902 67.5879C98.3388 71.452 96.4805 75.0121 93.7072 77.6133C92.9663 78.3087 92.13 79.1669 91.2531 79.7402C86.6007 82.7817 80.7433 84.2847 75.218 84.3623C74.899 84.3667 74.5128 84.3087 74.2072 84.2568C74.9315 85.2498 76.6759 86.4243 77.6945 87.1768C82.0866 90.4212 86.98 92.638 91.9777 94.75C95.2418 96.13 98.2849 97.3524 101.693 98.3428C103.126 98.7595 105.194 99.1345 105.552 100.785L105.491 101.017C104.522 101.379 92.3583 96.6703 90.4113 95.7275C87.8904 94.5063 84.2571 92.9113 81.8576 91.459C79.8952 90.2713 71.3843 84.863 71.8498 82.5215C72.1238 82.3216 72.9505 82.4115 73.342 82.416C81.7806 82.5123 90.6928 78.3541 94.4787 70.54C96.5051 66.3557 96.4551 62.5374 93.6603 58.7197C91.2384 55.4109 86.8516 54.0487 83.0285 53.1904C82.3411 54.7701 79.3394 58.9917 77.7971 59.4922C75.4355 60.2582 71.9961 58.1755 71.1672 55.8633C70.6127 54.3158 71.174 53.5304 70.9865 52.9424C69.2393 52.8837 64.8667 53.6292 63.092 54.0195C52.3134 56.3902 39.114 59.715 34.716 71.1768C34.2646 72.3516 34.4054 74.4293 34.384 75.7041C35.5962 77.9467 35.9102 78.7689 38.2805 80.2236C38.898 80.6026 39.3156 80.9469 40.0734 81.1748C40.382 81.5975 41.2275 82.4655 40.6174 82.8447C39.1546 82.8393 35.5193 80.1178 34.6096 79.0244C29.988 73.3981 32.0904 66.0228 36.9396 61.3164C40.771 57.598 44.5405 56.288 49.466 54.6162C57.0379 52.046 64.7147 51.1072 72.6789 50.8574C72.8962 50.6887 73.1359 50.514 73.343 50.334C76.4808 47.6047 80.7602 47.3265 84.5852 46.2637C85.8224 44.773 86.5463 42.9115 87.5812 41.3242C87.7342 41.1672 88.2437 40.2829 88.3879 40.043C87.989 40.3517 87.7282 40.5436 87.3811 40.9189C86.5634 41.6378 85.3685 42.1752 84.3361 42.5049C82.8627 42.0869 81.9229 41.7191 81.2883 40.2314C78.767 42.4231 72.86 45.5089 70.0471 42.2412C65.9556 37.4883 72.6907 31.2717 76.9582 29.7354ZM75.4572 70.4209C74.5913 70.2803 73.7271 70.0649 72.8625 70.1836C71.3362 70.6055 70.3518 70.9324 69.092 71.9326C62.2915 77.3323 57.827 85.4893 54.4826 93.3643C53.6063 95.4277 53.0393 97.6699 52.5324 99.8506C53.4132 99.461 53.5658 99.4028 54.2951 98.7422C57.6531 96.2286 61.5626 90.9198 64.0637 87.4639C68.0451 81.908 71.8454 76.2237 75.4572 70.4209ZM140.367 59.1465C140.592 59.1538 140.866 59.1662 141.052 59.3027C142.617 60.4484 141.786 61.2517 140.979 62.4482C138.749 65.7528 136.388 68.962 134.169 72.2666C135.543 72.1267 138.185 72.1896 139.629 72.1963C142.169 72.2081 144.965 72.1315 147.485 72.2324C148.08 72.5879 148.863 73.1136 148.714 73.8945C148.299 74.2793 147.195 74.1888 146.61 74.1689C142.076 74.0157 137.419 74.3067 132.903 74.1641C131.564 76.3395 125.196 85.8802 125.216 87.8789C125.219 88.174 125.313 88.2888 125.512 88.4834C125.659 88.5275 125.805 88.5634 125.959 88.5527C127.148 88.4697 132.714 84.7799 133.635 83.79C134.65 82.6987 135.299 81.2627 136.268 80.1133C137.564 78.5766 140.323 76.2535 142.414 76.0986C143.289 76.0339 143.761 76.3073 144.404 76.8652C144.577 77.3064 144.758 77.7828 144.797 78.2578C144.882 79.2998 144.49 80.2719 143.853 81.082C141.43 84.162 136.358 84.4516 135.973 84.9551C135.635 85.3981 135.564 86.4308 135.637 86.9775C135.705 87.4897 136.055 87.7099 136.441 87.9941C140.091 88.1367 143.255 86.2628 146.238 84.3506C147.151 83.7659 148.367 81.6924 149.418 82.4863C149.599 82.6228 149.713 82.8314 149.728 83.0576C149.757 83.4998 149.448 83.894 149.175 84.2109C146.666 87.1249 139.132 92.1153 135.507 89.0254C134.632 88.291 134.091 87.2365 134.001 86.0986C132.125 87.7701 129.774 89.4629 127.544 90.4746C126.036 91.1581 123.572 91.6752 122.932 89.7012C122.622 88.7429 123.006 88.1395 123.37 87.3018C122.023 88.4808 120.964 88.9271 119.145 88.6025C119.048 88.5828 118.952 88.5584 118.858 88.5303C118.073 88.2994 117.751 87.555 117.376 86.8623C117.256 86.8312 116.89 87.115 116.762 87.2158C115.438 88.2631 110.945 90.8971 110.146 88.0508C109.849 86.9918 110.077 85.7157 110.621 84.7266C109.645 84.789 108.801 84.7772 107.834 84.6416C106.789 87.4243 104.411 92.4862 100.708 90.8838C97.9004 89.6685 98.6454 85.2594 99.7717 83.124C100.613 81.5292 101.018 80.4208 102.794 79.7871C103.154 80.0347 103.465 80.3313 103.789 80.624C103.422 79.4045 102.73 76.3529 105.16 76.8691C107.436 77.3529 108.512 80.9064 108.044 82.9775C108.703 83.0281 110.572 83.2888 111.066 82.7158C112.105 81.5089 112.929 80.0864 114.009 78.8779C114.631 78.182 115.175 77.4503 116.102 78.2969C117.094 79.2369 116.421 80.0552 115.764 80.9307C114.19 83.0283 112.658 84.9653 112.655 87.707C116.585 86.3991 117.737 82.8685 120.39 80.4668C120.989 80.7145 121.657 80.9436 121.854 81.6309C122.145 82.6537 118.122 86.695 119.376 87.4395C120.413 87.502 122.596 85.7596 123.395 85.1162C124.867 83.9324 125.73 81.5909 126.627 79.9697C127.311 78.7359 129.422 76.9043 127.313 75.7588C123.949 73.933 119.521 74.2595 115.798 74.0869C114.825 74.0418 114.107 73.888 113.792 72.8955C113.721 72.6727 113.826 72.5672 113.942 72.4111C114.586 72.0442 116.528 72.196 117.344 72.1973L122.985 72.1963L128.197 72.1865C129.262 72.1843 130.543 72.1443 131.588 72.2471C132.086 70.5592 139.094 60.6618 140.367 59.1465ZM104.123 81.3457C103.819 81.9402 103.309 82.1523 102.926 82.6846C101.601 84.5228 100.388 86.9882 100.561 89.3076C101.163 89.1958 101.463 89.1473 102.038 88.8926C103.43 87.637 104.239 86.8743 105.118 85.1514C105.359 84.6805 105.627 84.042 105.863 83.6143C105.632 83.3484 104.112 81.342 104.123 81.3457ZM142.476 78.3369C140.732 79.6346 139.721 80.3218 138.112 81.8535L138.094 81.9854L138.281 81.9736C139.889 81.4402 140.986 80.6567 142.071 79.3496C142.261 79.1195 142.643 78.7194 142.722 78.4473C142.614 78.3697 142.604 78.3397 142.476 78.3369ZM124.013 73.8018C124.525 74.0339 124.762 74.1442 125.316 74.291C126.48 74.7049 128.045 75.459 128.895 76.3555C129.313 75.641 129.771 74.7065 130.376 74.1836C129.218 74.0466 127.235 73.8861 126.08 73.9502C125.295 73.854 124.802 73.8112 124.013 73.8018ZM144.05 15.7803C144.545 15.9633 145.461 16.9811 145.213 17.4863C144.155 19.6434 142.596 21.5508 141.361 23.6094C136.757 31.1673 131.936 38.5926 127.42 46.2031C125.385 49.5588 123.442 52.9693 121.591 56.4297C121.078 57.3996 120.567 58.3376 120.414 59.4375C120.38 59.688 120.345 59.9086 120.184 60.1104C119.947 60.15 119.83 60.0858 119.639 59.9473C119.283 59.6888 118.734 59.2283 118.672 58.7686C118.476 57.2931 123.172 48.7948 124.204 47.0234C124.979 45.6917 125.855 44.4216 126.635 43.0938C127.435 41.7322 128.174 40.344 129 38.9951C129.487 38.4222 131.197 35.635 131.679 34.8701C130.882 35.5301 130.154 36.4767 129.479 37.2607C129.097 37.7046 128.909 38.1611 128.413 38.5C125.681 40.0558 122.417 44.4716 118.987 42.5947C118.674 42.0466 118.458 41.7511 118.461 41.1191L118.462 40.8809C118.278 40.8037 117.898 41.2206 117.686 41.3467C117.348 41.6133 116.873 41.6841 116.519 41.8633C115.115 42.5723 113.25 41.7312 112.798 40.2051C112.294 38.5024 113.817 36.3062 114.609 34.8135C113.689 35.3424 112.677 36.2086 111.838 36.8896C110.38 38.0745 108.943 39.2854 107.527 40.5205C106.943 41.0312 104.932 43.0472 104.358 43.2441C103.877 43.2439 103.076 42.6279 103.022 42.2393C102.858 41.069 104.157 39.3187 104.741 38.3857C103.637 38.4272 103.166 38.4125 102.095 38.1514C101.541 40.2986 100.23 42.8045 98.3742 44.1055C95.6637 45.9944 92.7399 43.7944 92.9924 40.6855C93.1867 38.2939 94.3191 35.5769 96.0744 33.8965C97.0472 32.9655 97.649 33.8089 98.2424 34.5449C98.0107 33.9568 97.7279 33.1774 97.6652 32.5684C97.4381 30.361 99.3393 29.8858 100.784 31.2783C102.469 32.9023 102.353 34.6624 102.399 36.7686C103.372 36.783 104.309 36.7388 105.28 36.6982C106.116 35.5855 107.761 31.6297 109.067 33.6465C109.566 34.4174 109.453 34.7971 108.941 35.4707C108.668 35.9825 108.391 36.4921 108.111 37C108.656 36.5718 108.991 36.2682 109.49 35.7842C110.878 34.1328 113.422 32.3737 115.669 32.8311C116.233 33.2664 116.447 33.4789 116.785 34.1084C116.479 37.5258 115.048 38.0877 114.339 40.6084C116.301 40.068 117.718 39.3349 119.178 37.9033C120.986 36.1311 121.89 33.285 124.943 33.4346C127.032 33.4621 126.748 33.7242 128.3 34.9766C128.578 34.7603 129.702 33.2891 130.153 32.8203C133.603 29.1939 136.796 25.3319 139.71 21.2627C140.869 19.6623 141.903 18.0225 143.001 16.3857C143.227 16.0486 143.621 15.7567 144.05 15.7803ZM74.1428 52.7197C71.803 55.1262 72.631 57.8203 76.217 57.8438C76.763 57.2387 77.1545 56.8922 77.7932 56.373C78.7412 55.2741 79.797 53.9538 80.7463 52.9014C78.3514 52.6811 76.5563 52.6768 74.1428 52.7197ZM46.134 0C47.1041 0.403108 48.2403 0.171711 49.2287 0.357422C54.6869 1.38284 60.591 2.81412 64.5578 6.98242C65.7439 8.22882 66.0801 8.44514 66.842 10.0137C69.9161 16.343 65.7184 21.2747 60.3234 24.2979C59.3758 24.8274 58.4285 25.1976 57.4592 25.6494C62.2288 27.3758 66.662 30.9061 66.5471 36.4551C66.4494 41.159 61.72 44.9729 57.966 47.1074C49.1555 52.1168 38.6313 54.071 28.5637 53.7041C22.8801 53.4955 15.3884 52.4373 11.0686 48.3574C9.75904 47.0222 9.25431 45.4071 9.23945 43.583C9.13113 39.823 13.0732 35.7016 16.0861 33.9561C20.7061 31.2794 27.0971 29.8159 32.3459 31.1104C32.573 31.1664 34.1576 31.6538 34.2277 31.5957C35.1371 30.7748 35.4819 29.173 36.4103 28.2939C35.9605 28.1339 35.3116 27.9085 34.9074 27.6611C30.3798 24.889 37.1987 23.9499 39.0227 23.6143C39.6232 22.3979 41.2571 19.8638 42.0754 18.8359C41.8455 18.4504 41.5987 17.9154 41.3947 17.5039C41.4859 17.2946 41.586 17.0892 41.6936 16.8877C42.1017 16.1329 44.9107 13.0111 45.6838 12.832C45.9614 12.7677 46.2339 12.8678 46.4592 13.0273C46.7971 13.2667 47.1192 13.7019 47.1691 14.1221C47.2786 15.0456 42.6883 22.3964 41.8439 23.4785C44.8579 23.2305 48.8706 23.4297 51.7873 24.1074C52.5888 24.2936 53.2835 24.3114 54.0588 24.6553C55.3018 24.2438 60.0998 21.4755 61.2326 20.5957C63.1338 19.1191 65.7278 16.37 65.9611 13.8193C66.1396 11.8684 65.7528 10.5013 64.5432 8.95312C60.834 4.20645 53.8339 2.81479 48.1877 2.0332C45.3898 1.64596 41.8719 1.98413 39.0773 2.39551C28.4012 3.9671 17.3745 9.40147 9.83222 17.1689C7.91163 19.1468 5.88633 22.0814 4.45039 24.459C3.88208 25.4002 3.45723 26.8047 3.03633 27.7754C2.65724 28.6496 1.79513 32.5905 1.37129 32.9258C1.00331 32.8787 0.547868 32.5381 0.218943 32.3281C0.181305 32.2438 0.00647785 31.83 0.00116931 31.75C-0.0563319 28.2783 2.01752 23.4276 3.87422 20.5801C7.44907 15.0974 12.8308 10.2838 18.59 7.2002C19.6318 6.64236 20.598 5.94063 21.6389 5.44336C26.8957 2.9319 32.5304 1.15477 38.3127 0.390625C39.5266 0.231011 40.7097 0.328876 41.9406 0.0253906L42.0393 0H46.134ZM55.1408 26.5469C51.209 28.014 45.635 28.8376 41.467 28.79C40.6222 28.7804 39.5018 28.8219 38.6906 28.6885C38.0229 30.1269 37.183 31.2795 36.5861 32.5186C37.4768 33.0638 38.5534 33.5213 39.3645 34.166C41.7553 36.0669 43.6285 38.3161 45.2248 40.9062C45.4729 41.3089 45.6923 41.9099 45.135 42.1221C43.9663 41.8366 42.6279 39.363 41.8498 38.4326C41.2741 37.7445 40.7718 37.2794 40.1389 36.668C38.6863 35.2647 37.5229 34.6218 35.7678 33.7178C34.839 35.2489 33.8857 37.2043 32.8488 38.6709C32.7639 38.791 32.5545 38.8618 32.4094 38.8994C31.8546 38.8986 30.9015 38.0449 31.0139 37.6123C31.3209 36.4308 32.7708 33.8984 33.5129 33.0156C32.7616 32.9369 32.0748 32.749 31.341 32.666C25.9681 32.0588 20.006 34.0319 15.8703 37.3789C15.3857 37.7784 14.9094 38.1884 14.4426 38.6084C12.6982 40.5775 11.0555 42.5119 11.1232 45.2959C11.1859 47.8659 15.0058 49.471 16.9768 50.1064C22.5364 51.8987 28.4683 52.1839 34.2521 51.6953C38.5633 51.3678 42.3684 50.5397 46.5227 49.3975C48.932 48.9038 50.6413 47.9672 52.7883 46.9375C56.4794 45.1674 59.451 43.5353 62.2033 40.4062C65.4244 36.7441 65.4837 32.7964 61.8098 29.4873C60.6809 28.4707 56.5041 26.4326 55.1408 26.5469ZM82.8088 48.8926C80.2231 49.677 79.0288 49.9286 76.4719 51.0947L77.7883 51.1582C81.8837 51.1765 80.9336 52.6725 83.173 48.9033L83.1125 48.835L82.8088 48.8926ZM167.676 12.8301C168.322 12.7506 169.088 13.6113 169.159 14.2246C169.189 14.4821 168.805 15.163 168.633 15.4014C166.398 18.4978 164.27 21.6581 162.118 24.8125C161.91 25.1182 161.697 25.4316 161.455 25.7109C161.411 25.7611 161.367 25.811 161.321 25.8594C163.483 25.6448 165.824 25.8243 168.003 25.7539C168.385 25.7416 168.799 25.7533 169.18 25.7783C169.75 24.5698 173.965 17.1158 174.815 16.79C175.03 16.7074 175.241 16.7281 175.448 16.8271C175.841 17.0143 176.149 17.4217 176.282 17.8281C176.45 18.3372 176.269 18.6915 176.035 19.1338C175.347 20.4369 172.523 25.01 171.656 25.833C173.224 25.7367 175.613 25.3021 175.898 27.3691C175.902 27.4029 175.881 27.5071 175.87 27.5449C175.408 27.9067 171.36 27.7799 170.618 27.7129C169.153 30.5342 166.79 34.1611 164.956 36.7979C166.184 35.8677 169.517 33.105 170.73 35.4424C171.319 36.5768 171.173 39.3145 171.168 40.6396C172.43 40.1864 175.117 38.4319 175.582 37.1016C176.639 34.0811 179.143 32.1179 181.774 30.4854C182.419 30.0879 183.421 29.5286 184.214 29.6416C186.34 29.945 186.602 32.2879 185.743 33.8936C184.211 36.759 180.497 38.1123 177.388 38.3066C176.98 39.9228 176.468 40.5301 177.952 41.6475C181.588 41.7965 186.194 39.3513 188.817 36.9375C189.368 36.4298 190.151 35.6845 190.914 36.3799C191.007 36.592 191.101 36.8641 190.964 37.0947C189.554 39.4725 185.868 41.8244 183.447 42.834C181.758 43.5388 179.561 44.0308 177.959 43.3486C176.356 42.666 175.834 41.3802 175.25 39.957C174.334 40.8438 172.224 42.1445 170.891 42.1123C170.398 42.1003 170.131 41.9323 169.704 41.7012C168.707 39.9724 168.649 37.8943 168.863 35.9385C165.878 38.0305 163.647 40.9736 161.106 43.5439C159.844 44.8203 159.335 44.0978 158.682 42.8184C158.917 42.2076 159 42.0402 159.389 41.5176C159.523 41.4107 159.942 40.6811 160.059 40.4893C159.765 40.7147 159.468 40.9767 159.184 41.2178C157.167 42.9374 154.727 44.6665 151.951 44.5977C150.658 44.5649 149.822 43.6407 150.06 42.3408C150.591 39.4361 152.213 36.7787 153.488 34.1523C153.693 33.5097 155.805 30.89 155.301 30.2412C153.686 28.1648 150.612 28.25 148.273 27.8545C146.257 27.5135 143.09 28.1648 141.349 27.29C141.153 26.935 140.896 26.5389 140.85 26.1445L140.919 25.9219C141.52 25.6766 157.14 25.6586 158.698 25.7891C159.307 24.4756 166.729 13.3228 167.676 12.8301ZM98.4387 35.123C96.6826 36.4746 95.0059 39.7822 94.7395 41.9932C94.6974 42.3393 94.6696 42.5839 94.8771 42.8809C95.3209 43.0857 95.7348 42.8985 96.1496 42.6592C98.2031 41.2943 99.1244 39.445 100.173 37.2334C99.9497 37.0019 98.4564 35.1326 98.4387 35.123ZM160.037 27.708C158.989 29.5905 157.782 31.4298 156.693 33.2881C155.924 34.5981 151.193 41.3323 152.622 42.4482C154.482 42.1304 159.861 38.2175 161.605 36.8906C163.725 35.2776 165.937 30.0237 167.931 27.8418L167.906 27.7197L167.8 27.7158C166.437 27.8029 164.699 27.7357 163.309 27.7461C162.508 27.7521 160.775 27.785 160.037 27.708ZM126.87 36.249C126.849 35.3902 125.703 35.5713 125.08 35.6152C122.422 37.3233 121.628 38.8678 120.291 41.4688C120.672 41.1618 121.352 40.5865 121.738 40.3574C122.273 40.0432 126.646 36.5812 126.87 36.249ZM77.5568 31.9502C76.3225 32.5579 74.0677 34.5536 73.0939 35.5049L73.0705 35.6367L73.1203 35.6875C74.8966 34.9294 76.5168 34.0165 77.6398 32.2266C77.6801 32.1624 77.6448 32.1108 77.6203 32.0059L77.5568 31.9502ZM183.971 31.959C182.913 32.5922 180.315 34.6164 179.489 35.5146L179.457 35.6494L179.508 35.6738C180.612 35.3327 184.173 33.1772 184.007 31.998L183.971 31.959ZM99.9016 32.3545C99.0618 33.2486 99.564 34.6169 100.2 35.4932L100.416 35.498C100.639 34.9144 100.332 33.198 100.164 32.5449C100.06 32.4314 100.05 32.3986 99.9016 32.3545ZM151.265 27.4209C151.76 27.6603 151.981 27.7808 152.529 27.9033C152.835 28.0992 153.289 28.255 153.634 28.415C154.646 28.8848 155.352 29.2696 156.168 30.0205C156.483 29.3566 156.847 28.4529 157.381 27.9746C157.496 27.8715 157.449 27.9262 157.492 27.7559C157.096 27.6612 153.863 27.5807 153.434 27.6553C152.894 27.4977 151.844 27.4413 151.265 27.4209ZM50.7873 25.5752C48.7463 25.3955 44.4122 25.2813 42.423 25.4639C40.6562 25.5197 37.0464 25.9543 35.423 26.6562C37.3358 26.9413 41.8737 27.0439 43.718 26.7568C46.3945 26.5023 48.1783 26.2504 50.7873 25.5752Z" fill="var(--fill-0, #C6C6C6)"/>
</svg>
