<svg width="24" height="24" overflow="visible" style="display: block;" viewBox="0 0 24 24" fill="none" xmlns="http://www.w3.org/2000/svg">
<g id="Group">
<path id="Vector (Stroke)" d="M16.25 12C16.25 10.8728 15.8019 9.79215 15.0049 8.99512C14.2079 8.19809 13.1272 7.75 12 7.75C10.8728 7.75 9.79215 8.19809 8.99512 8.99512C8.19809 9.79215 7.75 10.8728 7.75 12C7.75 13.1272 8.19809 14.2079 8.99512 15.0049C9.79215 15.8019 10.8728 16.25 12 16.25C13.1272 16.25 14.2079 15.8019 15.0049 15.0049C15.8019 14.2079 16.25 13.1272 16.25 12ZM17.75 12C17.75 13.525 17.1438 14.9871 16.0654 16.0654C14.9871 17.1438 13.525 17.75 12 17.75C10.475 17.75 9.0129 17.1438 7.93457 16.0654C6.85624 14.9871 6.25 13.525 6.25 12C6.25 10.475 6.85624 9.0129 7.93457 7.93457C9.0129 6.85624 10.475 6.25 12 6.25C13.525 6.25 14.9871 6.85624 16.0654 7.93457C17.1438 9.0129 17.75 10.475 17.75 12Z" fill="var(--fill-0, #F0F0F0)"/>
<path id="Vector (Stroke)_2" d="M22.5 7C22.5 5.54131 21.9201 4.14278 20.8887 3.11133C19.8572 2.07988 18.4587 1.5 17 1.5H7C5.54131 1.5 4.14278 2.07988 3.11133 3.11133C2.07988 4.14278 1.5 5.54131 1.5 7V17C1.5 18.4587 2.07988 19.8572 3.11133 20.8887C4.14278 21.9201 5.54131 22.5 7 22.5H17C18.4587 22.5 19.8572 21.9201 20.8887 20.8887C21.9201 19.8572 22.5 18.4587 22.5 17V7ZM24 17C24 18.8565 23.263 20.6374 21.9502 21.9502C20.6374 23.263 18.8565 24 17 24H7C5.14348 24 3.36256 23.263 2.0498 21.9502C0.73705 20.6374 0 18.8565 0 17V7C0 5.14348 0.73705 3.36256 2.0498 2.0498C3.36256 0.73705 5.14348 0 7 0H17C18.8565 0 20.6374 0.73705 21.9502 2.0498C23.263 3.36256 24 5.14348 24 7V17Z" fill="var(--fill-0, #F0F0F0)"/>
<path id="Vector (Stroke)_3" d="M18.333 4.61887C18.6117 4.31282 19.0853 4.29065 19.3916 4.56906C19.6981 4.84769 19.721 5.32214 19.4424 5.62863L19.4297 5.6423C19.151 5.94852 18.6765 5.97065 18.3701 5.69211C18.064 5.41343 18.0418 4.93891 18.3203 4.63254L18.333 4.61887Z" fill="var(--fill-0, #F0F0F0)"/>
</g>
</svg>
