<svg width="22" height="22" overflow="visible" style="display: block;" viewBox="0 0 22 22" fill="none" xmlns="http://www.w3.org/2000/svg">
<g id="Group">
<path id="Vector" d="M14.2998 14.2998C13.4247 15.175 12.2377 15.6667 11 15.6667C9.76232 15.6667 8.57534 15.175 7.70017 14.2998C6.825 13.4247 6.33333 12.2377 6.33333 11C6.33333 9.76232 6.825 8.57534 7.70017 7.70017C8.57534 6.825 9.76232 6.33333 11 6.33333C12.2377 6.33333 13.4247 6.825 14.2998 7.70017C15.175 8.57534 15.6667 9.76232 15.6667 11C15.6667 12.2377 15.175 13.4247 14.2998 14.2998Z" stroke="var(--stroke-0, #9C9C9C)" stroke-linecap="round" stroke-linejoin="round"/>
<path id="Vector_2" d="M0.5 15.6667V6.33333C0.5 4.78624 1.11458 3.30251 2.20854 2.20854C3.30251 1.11458 4.78624 0.5 6.33333 0.5H15.6667C17.2138 0.5 18.6975 1.11458 19.7915 2.20854C20.8854 3.30251 21.5 4.78624 21.5 6.33333V15.6667C21.5 17.2138 20.8854 18.6975 19.7915 19.7915C18.6975 20.8854 17.2138 21.5 15.6667 21.5H6.33333C4.78624 21.5 3.30251 20.8854 2.20854 19.7915C1.11458 18.6975 0.5 17.2138 0.5 15.6667Z" stroke="var(--stroke-0, #9C9C9C)"/>
<path id="Vector_3" d="M17.4167 4.59526L17.4292 4.58151" stroke="var(--stroke-0, #9C9C9C)" stroke-linecap="round" stroke-linejoin="round"/>
</g>
</svg>
