<svg width="23" height="23" overflow="visible" style="display: block;" viewBox="0 0 23 23" fill="none" xmlns="http://www.w3.org/2000/svg">
<g id="Group">
<path id="Vector" d="M0.5 11.5C0.5 17.5753 5.4247 22.5 11.5 22.5C17.5753 22.5 22.5 17.5753 22.5 11.5C22.5 5.4247 17.5753 0.5 11.5 0.5C5.4247 0.5 0.5 5.4247 0.5 11.5Z" stroke="var(--stroke-0, #9C9C9C)" stroke-linecap="round" stroke-linejoin="round"/>
<path id="Vector_2" d="M12.5999 0.555501C12.5999 0.555501 15.8999 4.9005 15.8999 11.5005C15.8999 18.1005 12.5999 22.4455 12.5999 22.4455M10.3999 22.4455C10.3999 22.4455 7.09987 18.1005 7.09987 11.5005C7.09987 4.9005 10.3999 0.555501 10.3999 0.555501M1.19287 15.3505H21.8069M1.19287 7.6505H21.8069" stroke="var(--stroke-0, #9C9C9C)" stroke-linecap="round" stroke-linejoin="round"/>
</g>
</svg>
