<svg preserveAspectRatio="none" width="100%" height="100%" overflow="visible" style="display: block;" viewBox="0 0 25.5 25.5" fill="none" xmlns="http://www.w3.org/2000/svg">
<g id="Group">
<path id="Vector (Stroke)" d="M24 12.75C24 6.53661 18.9634 1.5 12.75 1.5C6.53661 1.5 1.5 6.53661 1.5 12.75C1.5 18.9634 6.53661 24 12.75 24C18.9634 24 24 18.9634 24 12.75ZM25.5 12.75C25.5 19.7918 19.7918 25.5 12.75 25.5C5.70819 25.5 0 19.7918 0 12.75C0 5.70819 5.70819 0 12.75 0C19.7918 0 25.5 5.70819 25.5 12.75Z" fill="var(--fill-0, #F0F0F0)"/>
<path id="Vector (Stroke)_2" d="M16.7996 12.7504C16.7996 11.5225 16.6902 10.3682 16.5115 9.30023H8.98805C8.80934 10.3682 8.69996 11.5225 8.69996 12.7504C8.69999 13.9782 8.80937 15.1318 8.98805 16.1996H16.5115C16.6902 15.1319 16.7995 13.9782 16.7996 12.7504ZM18.2996 12.7504C18.2995 13.9724 18.1975 15.1254 18.03 16.1996H23.9939C24.4079 16.1998 24.7437 16.5357 24.7439 16.9496C24.7439 17.3638 24.408 17.6995 23.9939 17.6996H17.7439C17.392 19.2579 16.9159 20.6106 16.4382 21.7172C15.9728 22.7955 15.5059 23.6439 15.1531 24.226C14.9769 24.5167 14.8291 24.7416 14.7234 24.8959C14.6705 24.9731 14.6274 25.0332 14.5974 25.0746C14.5826 25.0951 14.5708 25.111 14.5623 25.1225C14.558 25.1283 14.5551 25.1337 14.5525 25.1371C14.5512 25.1388 14.5494 25.1399 14.5486 25.1411L14.5476 25.143L14.5466 25.144C14.2961 25.4735 13.8256 25.5379 13.4959 25.2875C13.1661 25.0371 13.102 24.5666 13.3523 24.2368C13.3531 24.2357 13.3548 24.2331 13.3572 24.2299C13.3622 24.2231 13.3712 24.2115 13.3826 24.1957C13.4054 24.1642 13.4397 24.1146 13.4851 24.0483C13.5762 23.9153 13.7098 23.7134 13.8709 23.4477C14.1931 22.916 14.6268 22.129 15.0613 21.1225C15.4737 20.1671 15.8844 19.016 16.2039 17.6996H9.29566C9.61513 19.0161 10.0258 20.1671 10.4382 21.1225C10.8727 22.1291 11.3065 22.916 11.6287 23.4477C11.7896 23.7133 11.9224 23.9153 12.0134 24.0483C12.059 24.1147 12.0942 24.1642 12.117 24.1957C12.1283 24.2115 12.1363 24.2231 12.1414 24.2299C12.1439 24.2333 12.1464 24.2356 12.1472 24.2368C12.3974 24.5666 12.3333 25.0371 12.0037 25.2875C11.6738 25.5381 11.2024 25.4738 10.9519 25.144L10.95 25.1411C10.9492 25.14 10.9482 25.1387 10.947 25.1371C10.9444 25.1337 10.9415 25.1283 10.9373 25.1225C10.9287 25.1109 10.9161 25.0953 10.9011 25.0746C10.8712 25.0332 10.829 24.9731 10.7761 24.8959C10.6704 24.7416 10.5218 24.517 10.3455 24.226C9.9927 23.6439 9.5267 22.7954 9.06129 21.7172C8.58359 20.6106 8.1066 19.2579 7.75465 17.6996H1.50563C1.09141 17.6996 0.755625 17.3639 0.755625 16.9496C0.755815 16.5356 1.09153 16.1996 1.50563 16.1996H7.46949C7.30198 15.1254 7.19998 13.9724 7.19996 12.7504C7.19996 11.5282 7.30195 10.3746 7.46949 9.30023H1.50563C1.09149 9.30023 0.755752 8.96434 0.755625 8.55023C0.755625 8.13602 1.09141 7.80023 1.50563 7.80023H7.75465C8.1066 6.24198 8.5836 4.8893 9.06129 3.78266C9.52657 2.70479 9.99274 1.85688 10.3455 1.27484C10.5219 0.983757 10.6704 0.758338 10.7761 0.603945C10.829 0.526735 10.8712 0.46665 10.9011 0.425234C10.9161 0.404585 10.9287 0.388919 10.9373 0.377383C10.9414 0.371819 10.9445 0.367124 10.947 0.363711C10.9483 0.362041 10.9491 0.359959 10.95 0.358828L10.9519 0.357852V0.355898C11.2025 0.0261162 11.6738 -0.038161 12.0037 0.212344C12.3335 0.462887 12.3977 0.934268 12.1472 1.2641L12.1414 1.27094C12.1363 1.27778 12.128 1.28883 12.117 1.30414C12.0942 1.33567 12.059 1.38514 12.0134 1.4516C11.9223 1.58455 11.7897 1.78652 11.6287 2.05219C11.3065 2.58385 10.8728 3.37072 10.4382 4.37738C10.0258 5.33281 9.61513 6.48383 9.29566 7.80023H16.2039C15.8844 6.48385 15.4737 5.33281 15.0613 4.37738C14.6268 3.3708 14.1931 2.58385 13.8709 2.05219C13.7098 1.78648 13.5762 1.58455 13.4851 1.4516C13.4397 1.38528 13.4053 1.33563 13.3826 1.30414C13.3713 1.28851 13.3623 1.27777 13.3572 1.27094C13.3548 1.26778 13.3532 1.26532 13.3523 1.2641C13.1018 0.93424 13.166 0.462872 13.4959 0.212344C13.8256 -0.0379914 14.2961 0.0264393 14.5466 0.355898L14.5476 0.356875L14.5486 0.358828C14.5495 0.35998 14.5512 0.361977 14.5525 0.363711C14.5551 0.367124 14.5582 0.371853 14.5623 0.377383C14.5708 0.388854 14.5826 0.404774 14.5974 0.425234C14.6274 0.46665 14.6705 0.526735 14.7234 0.603945C14.8292 0.758334 14.9767 0.98384 15.1531 1.27484C15.5058 1.85691 15.9729 2.70455 16.4382 3.78266C16.9159 4.88927 17.392 6.24205 17.7439 7.80023H23.9939C24.408 7.80039 24.7439 8.13611 24.7439 8.55023C24.7438 8.96425 24.4079 9.30008 23.9939 9.30023H18.03C18.1976 10.3746 18.2996 11.5282 18.2996 12.7504Z" fill="var(--fill-0, #F0F0F0)"/>
</g>
</svg>
