<svg preserveAspectRatio="none" overflow="visible" style="display: block;" width="18" height="17.28" viewBox="0 0 18 17.28" fill="none" xmlns="http://www.w3.org/2000/svg">
<g id="gis:route" clip-path="url(#clip0_1761_5843)">
<path id="Vector" fill-rule="evenodd" clip-rule="evenodd" d="M14.9611 -0.000351892C13.7227 -0.000351892 12.6754 0.817861 12.3728 1.91636L12.0397 1.76775C11.9802 1.74122 11.9155 1.72748 11.8499 1.72748C11.7844 1.72748 11.7197 1.74122 11.6602 1.76775L6.14988 4.22515L0.63954 1.76792C0.570974 1.73735 0.495492 1.72386 0.420061 1.72869C0.344629 1.73352 0.271681 1.75651 0.20795 1.79555C0.144219 1.83459 0.0917601 1.88841 0.0554156 1.95205C0.019071 2.01568 1.26958e-05 2.08709 1.21366e-08 2.15966V14.3053C-1.99103e-05 14.3877 0.024488 14.4684 0.070635 14.5378C0.116782 14.6072 0.182645 14.6625 0.26046 14.6972L5.96034 17.239C6.01977 17.2655 6.08452 17.2792 6.15006 17.2792C6.2156 17.2792 6.28035 17.2655 6.33978 17.239L11.8501 14.7817L17.3605 17.239C17.6587 17.3719 18 17.1629 18 16.8474V4.70174C18 4.61937 17.9755 4.53872 17.9294 4.46928C17.8832 4.39984 17.8174 4.34452 17.7395 4.30983L17.1581 4.05028L17.3401 3.75271C17.3815 3.68066 17.4145 3.60393 17.4427 3.52548C17.5728 3.22043 17.6398 2.89399 17.64 2.56436C17.64 1.15482 16.4336 -0.000351892 14.9611 -0.000351892ZM14.9611 1.20113C15.754 1.20113 16.3845 1.80525 16.3845 2.56436C16.3845 3.3233 15.754 3.9269 14.9611 3.9269C14.1682 3.9269 13.5376 3.3233 13.5376 2.56436C13.5376 1.80525 14.1682 1.20113 14.9611 1.20113ZM12.0512 2.72558L12.299 2.83635C12.3472 3.26819 12.5099 3.68096 12.7715 4.03524L14.6342 7.12666C14.8952 7.45394 15.0687 7.39173 15.2856 7.10938L16.6999 4.79851L17.1 4.97718V16.1704L12.118 13.9487L12.0773 7.09261C12.1507 7.10782 12.224 7.12251 12.2976 7.13927L12.4632 6.4669C12.3336 6.43749 12.2035 6.41024 12.073 6.38517L12.0512 2.72558ZM11.376 2.78676V6.30084C11.1901 6.27642 11.1594 6.26021 10.9719 6.25228L10.9453 6.94279C11.1411 6.94971 11.178 6.9701 11.376 6.99775V13.9502L6.48 16.2525V5.08881L11.376 2.78676ZM0.9 2.8367L5.76 4.97674V16.1996L0.9 14.0295V2.8367ZM10.1777 6.29946C9.92988 6.34214 9.67626 6.41834 9.4401 6.55019C9.15759 6.70721 8.92527 6.9355 8.76834 7.21029L9.3987 7.54414C9.4926 7.37997 9.63106 7.24329 9.79938 7.1486L9.80046 7.14791L9.80154 7.14722C9.9468 7.066 10.1198 7.0114 10.305 6.9796L10.1777 6.29946ZM13.1776 6.65042L12.9737 7.31293C13.4242 7.44081 13.8704 7.58769 14.3141 7.74667L14.566 7.09901C14.1102 6.93588 13.648 6.78382 13.1776 6.65042ZM8.49726 7.96301L8.49186 7.99032L8.49132 7.99273C8.4015 8.48193 8.41104 8.96336 8.4312 9.42094L9.15048 9.39156C9.13086 8.94763 9.12672 8.51805 9.20034 8.11491L9.20466 8.0933L8.49726 7.96301ZM9.19332 10.0729L8.47512 10.1196C8.50752 10.5808 8.54208 11.0328 8.54082 11.4761L9.26082 11.4778C9.26226 10.9991 9.22572 10.5312 9.19332 10.0729ZM8.505 12.1275C8.4852 12.2922 8.45568 12.4524 8.41248 12.6062L8.41212 12.607L8.41176 12.6084C8.34876 12.8391 8.24274 13.0527 8.09478 13.22L8.64324 13.6675C8.87508 13.4057 9.02214 13.0976 9.10764 12.7859L9.108 12.7849C9.162 12.592 9.1971 12.3978 9.22014 12.206L8.505 12.1275ZM2.42676 12.7517L2.10348 13.3693C2.54988 13.5848 3.01158 13.763 3.47652 13.9171L3.71142 13.2638C3.26952 13.1174 2.83806 12.9501 2.42676 12.7517ZM4.37724 13.4625L4.18572 14.1288C4.662 14.2551 5.1516 14.3555 5.652 14.4096L5.73228 13.7227C5.2785 13.6738 4.82598 13.5815 4.37724 13.4625ZM7.64262 13.5606C7.28406 13.7368 6.85116 13.802 6.40602 13.8071L6.41502 14.4983C6.92514 14.4925 7.47054 14.4216 7.97058 14.1757L7.64262 13.5606Z" fill="#0AC200"/>
</g>
<defs>
<clipPath id="clip0_1761_5843">
<rect width="18" height="17.28" fill="white"/>
</clipPath>
</defs>
</svg>
