<svg width="25" height="24" overflow="visible" style="display: block;" viewBox="0 0 25 24" fill="none" xmlns="http://www.w3.org/2000/svg">
<g clip-path="url(#clip0_0_4)">
<path id="Vector" fill-rule="evenodd" clip-rule="evenodd" d="M20.7792 0C19.0592 0 17.6047 1.13641 17.1845 2.6621L16.7218 2.4557C16.6392 2.41885 16.5493 2.39976 16.4583 2.39976C16.3672 2.39976 16.2773 2.41885 16.1947 2.4557L8.5415 5.86876L0.88825 2.45594C0.79302 2.41348 0.688183 2.39474 0.583418 2.40144C0.478652 2.40815 0.377335 2.44009 0.28882 2.49431C0.200305 2.54852 0.127445 2.62328 0.0769661 2.71166C0.0264876 2.80005 1.76331e-05 2.89922 1.68564e-08 3.00002V19.869C-2.76533e-05 19.9834 0.0340111 20.0954 0.0981041 20.1919C0.162197 20.2883 0.253673 20.3651 0.36175 20.4133L8.27825 23.9435C8.36079 23.9803 8.45072 23.9994 8.54175 23.9994C8.63278 23.9994 8.72271 23.9803 8.80525 23.9435L16.4585 20.5307L24.1117 23.9435C24.526 24.1281 25 23.8379 25 23.3997V6.53068C25 6.41628 24.966 6.30426 24.9019 6.20782C24.8378 6.11138 24.7463 6.03454 24.6383 5.98636L23.8307 5.62587L24.0835 5.21259C24.141 5.11251 24.1867 5.00595 24.226 4.89699C24.4067 4.47331 24.4998 4.01992 24.5 3.5621C24.5 1.60441 22.8245 0 20.7792 0ZM20.7792 1.66873C21.8805 1.66873 22.7563 2.50778 22.7563 3.5621C22.7563 4.61619 21.8805 5.45451 20.7792 5.45451C19.678 5.45451 18.8022 4.61619 18.8022 3.5621C18.8022 2.50778 19.678 1.66873 20.7792 1.66873ZM16.7377 3.78602L17.082 3.93986C17.1489 4.53964 17.3748 5.11293 17.7383 5.60499L20.3253 9.89862C20.6878 10.3532 20.9287 10.2668 21.23 9.87462L23.1943 6.66508L23.75 6.91324V22.4593L16.8305 19.3736L16.774 9.85134C16.876 9.87246 16.9777 9.89286 17.08 9.91614L17.31 8.9823C17.13 8.94145 16.9493 8.9036 16.768 8.86877L16.7377 3.78602ZM15.8 3.87098V8.75165C15.5418 8.71773 15.4991 8.69523 15.2388 8.68421L15.2017 9.64326C15.4737 9.65286 15.525 9.68118 15.8 9.71958V19.3758L9 22.5733V7.06828L15.8 3.87098ZM1.25 3.94034L8 6.91262V22.5L1.25 19.486V3.94034ZM14.1357 8.74973C13.7915 8.80901 13.4392 8.91485 13.1112 9.09798C12.7189 9.31605 12.3962 9.63312 12.1783 10.0148L13.0538 10.4785C13.1842 10.2505 13.3765 10.0606 13.6103 9.9291L13.6117 9.92814L13.6132 9.92718C13.815 9.81438 14.0552 9.73854 14.3125 9.69438L14.1357 8.74973ZM18.3022 9.23718L18.019 10.1573C18.6447 10.3349 19.2645 10.5389 19.8808 10.7597L20.2305 9.86022C19.5975 9.63366 18.9555 9.42246 18.3022 9.23718ZM11.8018 11.0602L11.7942 11.0981L11.7935 11.1015C11.6687 11.781 11.682 12.4496 11.71 13.0851L12.709 13.0443C12.6817 12.4278 12.676 11.8311 12.7782 11.2712L12.7843 11.2412L11.8018 11.0602ZM12.7685 13.9906L11.771 14.0554C11.816 14.696 11.864 15.3239 11.8623 15.9395L12.8623 15.9419C12.8643 15.2771 12.8135 14.6271 12.7685 13.9906ZM11.8125 16.8443C11.785 17.073 11.744 17.2955 11.684 17.5091L11.6835 17.5103L11.683 17.5122C11.5955 17.8326 11.4483 18.1292 11.2428 18.3616L12.0045 18.9832C12.3265 18.6196 12.5307 18.1916 12.6495 17.7587L12.65 17.7572C12.725 17.4894 12.7737 17.2196 12.8057 16.9532L11.8125 16.8443ZM3.3705 17.7113L2.9215 18.569C3.5415 18.8683 4.18275 19.1157 4.8285 19.3298L5.15475 18.4224C4.541 18.2191 3.94175 17.9868 3.3705 17.7113ZM6.0795 18.6984L5.8135 19.6238C6.475 19.7993 7.155 19.9387 7.85 20.0138L7.9615 19.0598C7.33125 18.9919 6.70275 18.8637 6.0795 18.6984ZM10.6147 18.8346C10.1167 19.0794 9.5155 19.1699 8.89725 19.1771L8.90975 20.1371C9.61825 20.1289 10.3757 20.0305 11.0702 19.689L10.6147 18.8346Z" fill="#9C9C9C"/>
</g>
<defs>
<clipPath id="clip0_0_4">
<rect width="25" height="24" fill="white"/>
</clipPath>
</defs>
</svg>
