<svg width="16.6667" height="16" viewBox="0 0 16.6667 16" fill="none" xmlns="http://www.w3.org/2000/svg">
<g id="gis:route" clip-path="url(#clip0_1771_5718)">
<path id="Vector" fill-rule="evenodd" clip-rule="evenodd" d="M13.8515 0.000325521C12.7049 0.000325521 11.7352 0.75793 11.455 1.77506L11.1465 1.63746C11.0915 1.61289 11.0315 1.60017 10.9709 1.60017C10.9102 1.60017 10.8502 1.61289 10.7952 1.63746L5.69303 3.91283L0.590865 1.63762C0.527378 1.60931 0.457487 1.59682 0.387643 1.60129C0.317799 1.60576 0.250255 1.62705 0.191244 1.6632C0.132234 1.69934 0.083661 1.74918 0.0500086 1.8081C0.0163563 1.86703 -0.00129033 1.93314 -0.00130207 2.00034V13.2463C-0.00132052 13.3226 0.0213719 13.3973 0.0641007 13.4616C0.106829 13.5259 0.167813 13.5771 0.239865 13.6092L5.51753 15.9627C5.57256 15.9872 5.63251 16 5.6932 16C5.75388 16 5.81384 15.9872 5.86886 15.9627L10.971 13.6874L16.0732 15.9627C16.3494 16.0857 16.6654 15.8923 16.6654 15.6001V4.35411C16.6654 4.27785 16.6427 4.20317 16.6 4.13887C16.5572 4.07458 16.4962 4.02335 16.4242 3.99123L15.8859 3.75091L16.0544 3.47539C16.0927 3.40867 16.1232 3.33763 16.1494 3.26499C16.2698 2.98253 16.3319 2.68027 16.332 2.37506C16.332 1.06993 15.215 0.000325521 13.8515 0.000325521ZM13.8515 1.11281C14.5857 1.11281 15.1695 1.67218 15.1695 2.37506C15.1695 3.07778 14.5857 3.63667 13.8515 3.63667C13.1174 3.63667 12.5335 3.07778 12.5335 2.37506C12.5335 1.67218 13.1174 1.11281 13.8515 1.11281ZM11.1572 2.52434L11.3867 2.6269C11.4313 3.02675 11.5819 3.40895 11.8242 3.73699L13.5489 6.59941C13.7905 6.90245 13.9512 6.84485 14.152 6.58341L15.4615 4.44371L15.832 4.60915V14.9732L11.219 12.9161L11.1814 6.56789C11.2494 6.58197 11.3172 6.59557 11.3854 6.61109L11.5387 5.98852C11.4187 5.96129 11.2983 5.93606 11.1774 5.91284L11.1572 2.52434ZM10.532 2.58098V5.83476C10.3599 5.81215 10.3314 5.79714 10.1579 5.7898L10.1332 6.42917C10.3145 6.43557 10.3487 6.45445 10.532 6.48005V12.9175L5.9987 15.0492V4.71251L10.532 2.58098ZM0.832031 2.62722L5.33203 4.60874V15.0003L0.832031 12.991V2.62722ZM9.42253 5.83348C9.19303 5.873 8.9582 5.94356 8.73953 6.06564C8.47795 6.21103 8.26284 6.42241 8.11753 6.67685L8.7012 6.98597C8.78814 6.83396 8.91634 6.7074 9.0722 6.61973L9.0732 6.61909L9.0742 6.61845C9.2087 6.54325 9.36886 6.49269 9.54036 6.46325L9.42253 5.83348ZM12.2002 6.15844L12.0114 6.77189C12.4285 6.89029 12.8417 7.02629 13.2525 7.17349L13.4857 6.57381C13.0637 6.42276 12.6357 6.28196 12.2002 6.15844ZM7.86653 7.37381L7.86153 7.39909L7.86103 7.40133C7.77786 7.85429 7.7867 8.30006 7.80536 8.72374L8.47136 8.69654C8.4532 8.2855 8.44936 7.88773 8.51753 7.51445L8.52153 7.49445L7.86653 7.37381ZM8.51103 9.32742L7.84603 9.37062C7.87603 9.79767 7.90803 10.2162 7.90686 10.6266L8.57353 10.6282C8.57486 10.185 8.54103 9.75175 8.51103 9.32742ZM7.8737 11.2298C7.85536 11.3823 7.82803 11.5306 7.78803 11.673L7.7877 11.6738L7.78736 11.6751C7.72903 11.8887 7.63086 12.0865 7.49386 12.2414L8.0017 12.6558C8.21636 12.4134 8.35253 12.1281 8.4317 11.8394L8.43203 11.8385C8.48203 11.6599 8.51453 11.4801 8.53586 11.3025L7.8737 11.2298ZM2.2457 11.8078L1.94636 12.3797C2.3597 12.5792 2.7872 12.7442 3.2177 12.8869L3.4352 12.2819C3.02603 12.1464 2.62653 11.9915 2.2457 11.8078ZM4.0517 12.4659L3.87436 13.0829C4.31536 13.1998 4.7687 13.2928 5.23203 13.3429L5.30636 12.7069C4.8862 12.6616 4.4672 12.5762 4.0517 12.4659ZM7.0752 12.5567C6.7432 12.7199 6.34236 12.7802 5.9302 12.785L5.93853 13.425C6.41086 13.4196 6.91586 13.354 7.37886 13.1263L7.0752 12.5567Z" fill="#000000"/>
</g>
<defs>
<clipPath id="clip0_1771_5718">
<rect width="16.6667" height="16" fill="white"/>
</clipPath>
</defs>
</svg>
