<svg width="22.0013" height="22" overflow="visible" style="display: block;" viewBox="0 0 22.0013 22" fill="none" xmlns="http://www.w3.org/2000/svg">
<g id="Group">
<path id="Vector" d="M2.11538 10.798V20.6923C2.11538 20.9065 2.20048 21.112 2.35195 21.2634C2.50342 21.4149 2.70886 21.5 2.92308 21.5H19.0769C19.2911 21.5 19.4966 21.4149 19.648 21.2634C19.7995 21.112 19.8846 20.9065 19.8846 20.6923V10.798M12.6154 10.798V21.5M2.11538 15.8462H12.6154M0.5 6.15385L2.92308 0.5H19.0769L21.5 6.15385H0.5ZM0.5 6.15385V7.76923C0.5 8.62608 0.840384 9.44784 1.44627 10.0537C2.05216 10.6596 2.87392 11 3.73077 11H4.18308C5.03993 11 5.86169 10.6596 6.46758 10.0537C7.07346 9.44784 7.41385 8.62608 7.41385 7.76923V6.15385" stroke="var(--stroke-0, #9C9C9C)" stroke-linecap="round" stroke-linejoin="round"/>
<path id="Vector_2" d="M14.6359 6.1548V7.77018M14.6359 7.77018C14.6359 8.62703 14.2955 9.44879 13.6896 10.0547C13.0837 10.6606 12.262 11.0009 11.4051 11.0009H10.5974C9.74059 11.0009 8.91883 10.6606 8.31294 10.0547C7.70706 9.44879 7.36667 8.62703 7.36667 7.77018V6.1548M14.6359 7.77018C14.6359 8.62703 14.9763 9.44879 15.5822 10.0547C16.1881 10.6606 17.0098 11.0009 17.8667 11.0009H18.2705C19.1274 11.0009 19.9491 10.6606 20.555 10.0547C21.1609 9.44879 21.5013 8.62703 21.5013 7.77018V6.1548" stroke="var(--stroke-0, #9C9C9C)" stroke-linecap="round" stroke-linejoin="round"/>
</g>
</svg>
