<svg width="25.4999" height="25.5" overflow="visible" style="display: block;" viewBox="0 0 25.4999 25.5" fill="none" xmlns="http://www.w3.org/2000/svg">
<g id="Group">
<path id="Vector (Stroke)" d="M7.90137 7.96191H1.5V9.05762C1.5 9.83775 1.80981 10.586 2.36133 11.1377C2.91311 11.6895 3.66204 12 4.44238 12H4.95898C5.73932 12 6.48826 11.6895 7.04004 11.1377C7.59158 10.586 7.90136 9.83777 7.90137 9.05762V7.96191ZM1.8877 6.46191H23.6123L21.4854 1.5H4.01465L1.8877 6.46191ZM3.3457 23.8271C3.34583 23.8728 3.36419 23.9169 3.39648 23.9492C3.42894 23.9817 3.47363 24 3.51953 24H13.8457V19.0381H3.3457V23.8271ZM9.40137 9.05762C9.40136 10.2358 8.93367 11.3661 8.10059 12.1992C7.26751 13.0322 6.1371 13.5 4.95898 13.5H4.44238C4.06939 13.5 3.70114 13.4529 3.3457 13.3623V17.5381H13.8457V12.5195C13.8457 12.1054 14.1816 11.7697 14.5957 11.7695C15.0099 11.7695 15.3457 12.1053 15.3457 12.5195V24H21.9805C22.0262 24 22.0701 23.9815 22.1025 23.9492C22.1349 23.9169 22.1532 23.8729 22.1533 23.8271V12.5195C22.1533 12.1054 22.4892 11.7697 22.9033 11.7695C23.3175 11.7695 23.6533 12.1053 23.6533 12.5195V23.8271C23.6532 24.2706 23.4776 24.6961 23.1641 25.0098C22.8503 25.3235 22.4242 25.5 21.9805 25.5H3.51953C3.07581 25.5 2.6497 25.3235 2.33594 25.0098C2.02234 24.6961 1.84583 24.2707 1.8457 23.8271V12.6602C1.65358 12.5217 1.47039 12.3688 1.30078 12.1992C0.467698 11.3661 4.041e-06 10.2358 0 9.05762V7.21191C0 7.11035 0.0205431 7.00937 0.0605469 6.91602L2.83008 0.454102L2.88086 0.355469C3.01606 0.136609 3.25708 0 3.51953 0H21.9805C22.2804 0 22.5517 0.178554 22.6699 0.454102L25.4395 6.91602C25.5387 7.14761 25.5146 7.41363 25.376 7.62402C25.2372 7.83442 25.002 7.96183 24.75 7.96191H9.40137V9.05762Z" fill="var(--fill-0, #F0F0F0)"/>
<path id="Vector (Stroke)_2" d="M7.84624 9.05806V7.21236C7.84624 6.79814 8.18202 6.46236 8.59624 6.46236C9.01045 6.46236 9.34624 6.79814 9.34624 7.21236V9.05806C9.34624 9.83832 9.65588 10.5873 10.2076 11.1391C10.7593 11.6909 11.5083 12.0004 12.2886 12.0004H13.2115C13.9918 12.0004 14.7407 11.6909 15.2925 11.1391C15.8442 10.5873 16.1539 9.83832 16.1539 9.05806V7.21236C16.1539 6.79814 16.4896 6.46236 16.9039 6.46236C17.3181 6.46237 17.6539 6.79815 17.6539 7.21236V9.05806C17.6539 9.83833 17.9635 10.5873 18.5152 11.1391C19.067 11.6909 19.8159 12.0004 20.5962 12.0004H21.0572C21.8375 12.0004 22.5864 11.6909 23.1382 11.1391C23.69 10.5873 23.9996 9.8384 23.9996 9.05806V7.21236C23.9996 6.79826 24.3355 6.46255 24.7496 6.46236C25.1638 6.46236 25.4996 6.79814 25.4996 7.21236V9.05806C25.4996 10.2362 25.0319 11.3666 24.1988 12.1997C23.3657 13.0327 22.2353 13.5004 21.0572 13.5004H20.5962C19.4181 13.5004 18.2877 13.0327 17.4546 12.1997C17.2478 11.9929 17.0641 11.7674 16.9039 11.5278C16.7436 11.7674 16.5599 11.9929 16.3531 12.1997C15.52 13.0327 14.3896 13.5004 13.2115 13.5004H12.2886C11.1105 13.5004 9.9801 13.0327 9.14702 12.1997C8.31403 11.3666 7.84624 10.2361 7.84624 9.05806Z" fill="var(--fill-0, #F0F0F0)"/>
</g>
</svg>
