<svg width="95.1912" height="40.0051" overflow="visible" style="display: block;" viewBox="0 0 95.1912 40.0051" fill="none" xmlns="http://www.w3.org/2000/svg">
<g id="Group 2">
<path id="Path 1" d="M35.0346 7.69911V20.5787H37.1561V7.69911H35.0346Z" fill="var(--fill-0, #231F20)"/>
<path id="Path 2" d="M32.9957 11.4516C32.9955 12.2344 32.7632 12.9996 32.3282 13.6503C31.8931 14.3011 31.2749 14.8083 30.5516 15.1077C29.8283 15.4071 29.0325 15.4853 28.2648 15.3325C27.4971 15.1797 26.7919 14.8026 26.2384 14.249C25.685 13.6954 25.3081 12.9901 25.1555 12.2224C25.0028 11.4546 25.0813 10.6588 25.3809 9.93562C25.6805 9.21243 26.1878 8.59431 26.8387 8.15943C27.4896 7.72456 28.2548 7.49246 29.0376 7.49246C29.5575 7.49246 30.0723 7.59485 30.5526 7.79383C31.0329 7.99281 31.4692 8.28447 31.8368 8.65212C32.2044 9.01978 32.4959 9.45624 32.6948 9.93658C32.8936 10.4169 32.9959 10.9317 32.9957 11.4516ZM29.0376 9.61392C28.6749 9.61413 28.3203 9.72188 28.0188 9.92354C27.7173 10.1252 27.4823 10.4117 27.3436 10.7469C27.2048 11.0821 27.1686 11.4508 27.2394 11.8066C27.3102 12.1624 27.4849 12.4892 27.7414 12.7457C27.9979 13.0022 28.3247 13.1769 28.6805 13.2477C29.0363 13.3185 29.4051 13.2823 29.7402 13.1436C30.0754 13.0049 30.3619 12.7699 30.5636 12.4684C30.7653 12.1668 30.873 11.8123 30.8732 11.4495C30.8734 11.2084 30.826 10.9697 30.7338 10.7469C30.6416 10.5241 30.5064 10.3217 30.3359 10.1512C30.1654 9.98075 29.963 9.84554 29.7402 9.75335C29.5175 9.66115 29.2787 9.61379 29.0376 9.61392Z" fill="var(--fill-0, #231F20)"/>
<g id="Group 1">
<path id="Path 3" d="M19.9465 5.22307C19.3939 4.89648 18.9755 4.38389 18.7664 3.77701C18.5551 4.40474 18.142 4.94486 17.5915 5.31312L17.3098 5.06914C17.7051 4.83734 18.0314 4.5045 18.2554 4.10478C18.4794 3.70507 18.5929 3.2529 18.5842 2.7948V2.04505H18.9433V2.7948C18.9337 3.23465 19.0448 3.66875 19.2645 4.04995C19.4841 4.43114 19.804 4.74488 20.1894 4.9571L19.9465 5.22307ZM20.9381 3.84716V6.07964H20.5873V1.7927H20.9381V3.53409H21.6072V3.84821L20.9381 3.84716Z" fill="var(--fill-0, #231F20)"/>
<path id="Path 4" d="M22.3446 4.08182V2.11009H24.4127V2.41063H22.6912V3.77188C23.4388 3.79944 24.1872 3.75702 24.9268 3.64517L24.9321 3.94048C24.075 4.0598 23.2095 4.10706 22.3446 4.08182ZM22.8075 5.98129V4.58758H23.1541V5.68809H25.7279V5.98234L22.8075 5.98129ZM25.5876 3.31427V4.90592H25.242V1.79699H25.5876V3.0169H26.2158V3.31638L25.5876 3.31427Z" fill="var(--fill-0, #231F20)"/>
<path id="Path 5" d="M30.0979 4.09019V3.07972H29.0507V3.93207H27.0612V1.99806H27.412V2.67241H28.7041V1.99806H29.0507V2.77502H30.0979V1.79699H30.4445V4.09019H30.0979ZM28.7031 2.9635H27.4109V3.64517H28.7031V2.9635ZM27.5659 6.02842V4.37188H27.9125V4.88706H30.0842V4.37188H30.4361V6.02842H27.5659ZM30.079 5.17712H27.9125V5.73942H30.0842L30.079 5.17712Z" fill="var(--fill-0, #231F20)"/>
<path id="Path 6" d="M31.639 3.03262C31.6543 2.74368 31.7798 2.47159 31.9897 2.27246C32.1996 2.07333 32.478 1.96233 32.7673 1.96233C33.0567 1.96233 33.335 2.07333 33.5449 2.27246C33.7548 2.47159 33.8803 2.74368 33.8956 3.03262C33.8803 3.32156 33.7548 3.59361 33.5449 3.79275C33.335 3.99188 33.0567 4.10291 32.7673 4.10291C32.478 4.10291 32.1996 3.99188 31.9897 3.79275C31.7798 3.59361 31.6543 3.32156 31.639 3.03262ZM32.0097 3.03262C32.0097 3.23368 32.0896 3.4265 32.2318 3.56867C32.374 3.71085 32.5668 3.79073 32.7678 3.79073C32.9689 3.79073 33.1617 3.71085 33.3039 3.56867C33.4461 3.4265 33.5259 3.23368 33.5259 3.03262C33.5259 2.83155 33.4461 2.63871 33.3039 2.49653C33.1617 2.35436 32.9689 2.2745 32.7678 2.2745C32.5668 2.2745 32.374 2.35436 32.2318 2.49653C32.0896 2.63871 32.0097 2.83155 32.0097 3.03262ZM32.3134 5.98129V4.64832H32.6652V5.68707H35.3008V5.98129H32.3134ZM34.8474 4.90592V1.79699H35.193V4.90173L34.8474 4.90592Z" fill="var(--fill-0, #231F20)"/>
</g>
<path id="Path 7" d="M45.244 17.2161V9.61399H39.4116V7.4946H47.3697V17.2182L45.244 17.2161Z" fill="var(--fill-0, #231F20)"/>
<path id="Path 8" d="M49.4089 17.282V7.49246H51.5293V17.282H49.4089Z" fill="var(--fill-0, #231F20)"/>
<path id="Path 9" d="M60.1814 20.64V14.8106H54.483V12.6881H62.3039V20.641L60.1814 20.64Z" fill="var(--fill-0, #231F20)"/>
<path id="Path 10" d="M56.7204 24.9796V20.3179H58.8408V24.9796H56.7204Z" fill="var(--fill-0, #231F20)"/>
<path id="Path 11" d="M64.2894 25.5649V12.6853H68.8287V14.8057H66.4098V25.5617L64.2894 25.5649Z" fill="var(--fill-0, #231F20)"/>
<path id="Path 12" d="M68.8122 26.04V18.0096H77.2991V26.04H68.8122ZM70.9337 23.9175H75.1797V20.1322H70.9337V23.9175Z" fill="var(--fill-0, #231F20)"/>
<path id="Path 13" d="M75.7048 33.4311V30.2897H68.4954V28.1693H77.8253V33.43L75.7048 33.4311Z" fill="var(--fill-0, #231F20)"/>
<path id="Path 14" d="M68.6813 40.0051V32.5119H70.8028V37.8836H77.3944V40.0051H68.6813Z" fill="var(--fill-0, #231F20)"/>
<path id="Path 15" d="M89.632 33.1268V12.6838H95.1912V14.8043H91.7535V33.1289L89.632 33.1268Z" fill="var(--fill-0, #231F20)"/>
<path id="Path 16" d="M84.8491 23.919V21.6279H82.7297V23.919H79.0648V26.0394H88.514V23.919H84.8491Z" fill="var(--fill-0, #231F20)"/>
<path id="Path 17" d="M88.0174 12.6687H84.8489V10.7839H82.7295V12.6687H79.5546V14.7902H80.497C80.1081 15.3839 79.887 16.0717 79.8571 16.7808C79.8271 17.4899 79.9895 18.1939 80.3269 18.8183C80.6643 19.4427 81.1643 19.9642 81.7739 20.3277C82.3835 20.6911 83.08 20.883 83.7897 20.883C84.4994 20.883 85.196 20.6911 85.8055 20.3277C86.4151 19.9642 86.9151 19.4427 87.2525 18.8183C87.5899 18.1939 87.7523 17.4899 87.7223 16.7808C87.6924 16.0717 87.4712 15.3839 87.0824 14.7902H88.0248L88.0174 12.6687ZM83.7839 18.763C83.4248 18.7625 83.0738 18.6557 82.7753 18.4558C82.4768 18.256 82.2443 17.9722 82.1071 17.6403C81.9699 17.3083 81.9341 16.9431 82.0044 16.5909C82.0746 16.2386 82.2477 15.9151 82.5018 15.6612C82.7558 15.4073 83.0794 15.2344 83.4317 15.1643C83.784 15.0943 84.1492 15.1302 84.481 15.2677C84.8129 15.4051 85.0966 15.6377 85.2962 15.9363C85.4959 16.2349 85.6026 16.586 85.6028 16.9452C85.602 17.4272 85.41 17.8892 85.0691 18.23C84.7281 18.5708 84.266 18.7624 83.7839 18.763Z" fill="var(--fill-0, #231F20)"/>
<path id="Path 18" d="M8.46912 1.8848H5.29635V0H3.17383V1.8848H0V4.00627H0.942402C0.553335 4.59995 0.332065 5.28777 0.30198 5.99694C0.271896 6.70611 0.434114 7.41022 0.771503 8.03472C1.10889 8.65921 1.60888 9.18087 2.21852 9.54443C2.82815 9.90798 3.52475 10.0999 4.23456 10.0999C4.94437 10.0999 5.64097 9.90798 6.25061 9.54443C6.86024 9.18087 7.3602 8.65921 7.69759 8.03472C8.03498 7.41022 8.19723 6.70611 8.16714 5.99694C8.13706 5.28777 7.91579 4.59995 7.52672 4.00627H8.46912V1.8848ZM4.23562 7.97905C3.87609 7.97905 3.52463 7.87244 3.22569 7.67269C2.92676 7.47295 2.69378 7.18906 2.55619 6.8569C2.41861 6.52474 2.38261 6.15923 2.45275 5.80662C2.52289 5.454 2.69601 5.1301 2.95023 4.87588C3.20446 4.62165 3.52835 4.4485 3.88097 4.37836C4.23359 4.30822 4.5991 4.34422 4.93126 4.4818C5.26342 4.61939 5.54731 4.8524 5.74705 5.15133C5.94679 5.45027 6.05341 5.80173 6.05341 6.16126C6.05285 6.6432 5.86117 7.10522 5.52039 7.446C5.17961 7.78678 4.71756 7.9785 4.23562 7.97905Z" fill="var(--fill-0, #231F20)"/>
<path id="Path 19" d="M10.1747 9.78327V1.74977H15.7391V3.87018H12.3003V9.78221L10.1747 9.78327Z" fill="var(--fill-0, #231F20)"/>
<path id="Path 20" d="M4.67939 18.3167V11.1607H6.80086V18.3167H4.67939Z" fill="var(--fill-0, #231F20)"/>
<path id="Path 21" d="M20.2837 15.602V9.77165H14.5873V7.6512H22.4093V15.6031L20.2837 15.602Z" fill="var(--fill-0, #231F20)"/>
<path id="Path 22" d="M20.2841 21.8764V18.735H13.0757V16.6145H22.4066V21.8764H20.2841Z" fill="var(--fill-0, #231F20)"/>
<path id="Path 23" d="M20.2837 30.7828V24.9535H14.5873V22.832H22.4093V30.7839L20.2837 30.7828Z" fill="var(--fill-0, #231F20)"/>
<path id="Path 24" d="M54.56 23.9186H45.9223V22.4139H52.7108V16.616H4.67939V18.7364H50.5914V20.2945H43.8019V26.0432H95.1904V23.9228L54.56 23.9186Z" fill="var(--fill-0, #2C803E)"/>
</g>
</svg>
